<?xml version="1.0" standalone="no"?>
<!DOCTYPE svg PUBLIC "-//W3C//DTD SVG 20010904//EN"
 "http://www.w3.org/TR/2001/REC-SVG-20010904/DTD/svg10.dtd">
<svg version="1.0" xmlns="http://www.w3.org/2000/svg"
 width="399.000000pt" height="399.000000pt" viewBox="0 0 399.000000 399.000000"
 preserveAspectRatio="xMidYMid meet">
<metadata>
Created by potrace 1.11, written by Peter Selinger 2001-2013
</metadata>
<g transform="translate(0.000000,399.000000) scale(0.100000,-0.100000)"
fill="#000000" stroke="none">
<path d="M2205 3903 c-27 -7 -87 -17 -131 -22 -138 -16 -360 -111 -514 -219
-97 -69 -268 -245 -317 -327 -23 -38 -56 -112 -73 -164 -27 -78 -33 -113 -36
-207 -2 -63 -1 -114 2 -114 7 0 77 52 85 64 4 4 9 2 12 -5 4 -10 6 -9 6 4 1 9
5 17 10 17 4 0 20 12 34 26 17 17 33 24 43 20 13 -5 14 -3 6 7 -8 10 -6 16 8
25 11 7 23 13 27 13 5 1 14 11 22 21 10 15 16 17 21 8 12 -19 -22 -49 -39 -36
-11 8 -13 8 -7 -2 4 -7 -5 -24 -25 -45 -20 -19 -30 -25 -26 -14 4 11 3 16 -3
12 -6 -3 -10 -12 -10 -19 0 -7 -10 -21 -22 -32 -12 -10 -18 -13 -14 -6 4 6 2
12 -3 12 -6 0 -11 -9 -11 -19 0 -24 -16 -36 -23 -19 -3 8 -6 6 -6 -5 -1 -10
-23 -45 -51 -78 -139 -167 -224 -348 -233 -496 -2 -35 -10 -50 -45 -83 -23
-23 -43 -48 -44 -58 -2 -22 -2 -27 -16 -92 -16 -76 -20 -108 -21 -157 l-1 -42
-69 -21 c-38 -11 -96 -38 -129 -60 -62 -41 -142 -125 -142 -147 0 -7 -7 -13
-15 -13 -25 0 -119 -103 -146 -160 -44 -93 -61 -190 -44 -264 3 -16 7 -33 8
-39 1 -6 10 -20 20 -32 10 -11 16 -27 14 -36 -3 -10 1 -16 12 -15 9 0 15 -5
14 -11 -2 -7 2 -13 7 -13 6 0 10 -7 10 -16 0 -13 6 -12 33 9 26 19 42 24 77
21 65 -4 111 -14 143 -29 15 -8 25 -9 22 -4 -3 5 1 6 9 3 9 -3 16 -9 16 -13 0
-4 21 -12 46 -19 32 -9 48 -19 51 -33 4 -16 8 -18 14 -7 7 10 9 10 9 1 0 -7 7
-13 15 -13 7 0 18 -7 23 -16 5 -9 12 -15 16 -15 13 2 66 -30 66 -40 0 -6 5 -7
10 -4 6 3 10 2 10 -2 0 -5 16 -17 35 -27 19 -10 42 -26 53 -35 10 -9 27 -21
38 -28 10 -6 18 -16 16 -23 -1 -6 3 -10 10 -8 18 3 99 -52 92 -63 -3 -5 3 -6
12 -2 13 5 16 3 11 -10 -4 -10 -2 -14 6 -11 7 2 22 -3 32 -13 11 -10 32 -24
48 -32 20 -11 24 -17 15 -23 -9 -5 -8 -8 5 -8 10 0 23 -5 30 -10 37 -32 67
-55 110 -88 28 -21 45 -42 42 -50 -3 -8 0 -10 6 -6 6 3 22 -6 35 -21 13 -16
24 -24 24 -20 0 5 9 -1 20 -13 12 -12 25 -22 30 -22 6 0 10 -6 10 -14 0 -8 5
-18 12 -22 7 -5 8 -2 3 7 -4 8 6 1 23 -15 17 -16 29 -34 25 -39 -3 -6 -1 -7 5
-3 6 4 27 -9 47 -29 20 -19 41 -35 46 -35 12 0 30 -36 21 -45 -4 -5 -1 -5 6
-1 7 4 12 2 12 -5 0 -7 3 -10 6 -6 4 3 20 -1 37 -9 24 -13 31 -13 38 -3 6 10
11 10 25 -2 13 -10 16 -10 10 -1 -5 9 0 21 13 33 25 23 50 27 31 4 -19 -22 -8
-25 13 -3 9 10 13 18 9 18 -5 0 -9 7 -9 15 0 19 13 19 21 0 6 -17 26 -20 26
-4 0 5 -5 7 -10 4 -5 -3 -10 2 -10 13 0 11 18 34 41 53 22 19 47 39 54 46 10
9 17 7 36 -10 19 -18 22 -18 16 -3 -4 10 -7 20 -7 22 0 3 -4 2 -10 -1 -6 -3
-10 2 -10 11 0 10 2 15 5 12 3 -3 23 12 44 33 21 22 45 39 52 39 9 -1 7 -6 -5
-15 -17 -13 -18 -17 -6 -28 7 -6 10 -7 7 -1 -6 11 32 50 45 46 4 -1 5 5 1 14
-5 15 -7 15 -15 0 -5 -9 -14 -14 -19 -10 -6 3 -3 11 8 19 13 10 21 11 31 2 23
-19 40 -17 35 4 -3 10 0 19 6 19 6 0 11 5 11 11 0 8 -6 7 -17 -2 -15 -13 -15
-12 -4 8 7 14 17 20 26 17 8 -4 12 -11 8 -18 -4 -6 4 -4 17 5 27 18 38 39 20
39 -6 0 -9 -4 -5 -9 7 -13 -12 -24 -26 -16 -10 7 29 52 41 48 3 -1 8 4 13 12
4 8 18 11 38 8 21 -3 30 -1 28 9 -3 26 1 39 11 33 6 -3 10 1 10 9 0 8 5 18 12
22 7 5 9 2 4 -7 -4 -8 0 -5 8 5 9 11 18 17 22 14 3 -4 -3 -15 -14 -26 -17 -17
-18 -21 -6 -26 8 -3 13 -2 10 2 -2 4 2 15 9 25 11 16 13 16 19 1 3 -9 3 -21 0
-27 -5 -9 -4 -9 5 -1 10 9 9 18 -3 42 -9 17 -13 33 -8 35 8 5 28 -13 29 -28 1
-5 7 -11 15 -13 9 -2 8 0 -2 7 -8 6 -11 11 -5 11 5 0 4 5 -3 12 -16 16 -15 28
3 28 8 0 14 -3 13 -7 -2 -5 0 -9 5 -10 4 -2 7 0 8 5 0 4 10 12 22 19 12 7 18
12 12 12 -5 1 -17 -3 -25 -8 -8 -6 -18 -7 -23 -4 -19 11 36 31 64 23 25 -7 27
-6 23 14 -2 12 3 31 12 42 8 10 13 12 9 4 -4 -8 3 -3 15 13 12 15 26 25 31 21
5 -3 9 0 9 5 0 6 5 11 10 11 6 0 16 4 23 10 64 53 157 112 159 103 5 -29 0
-39 -22 -49 -25 -11 -25 -11 6 -10 24 1 31 5 30 21 -1 11 4 20 11 20 6 0 15 4
20 8 4 5 3 8 -2 7 -18 -4 -35 0 -35 8 0 9 71 47 83 44 4 -1 7 2 7 8 0 5 5 10
10 10 7 0 7 -7 0 -21 -7 -11 -10 -23 -7 -25 2 -3 10 9 17 26 7 16 18 31 24 32
27 3 56 13 80 26 5 3 6 0 2 -6 -11 -19 5 -14 21 6 14 16 14 16 9 -1 -4 -12 -2
-16 5 -11 7 4 10 1 7 -7 -2 -7 -16 -14 -31 -14 -15 -1 -30 -5 -33 -8 -9 -8 49
-3 64 7 7 4 11 15 10 24 -2 14 7 18 49 20 34 1 56 -2 65 -11 14 -16 49 -10 61
10 4 7 15 13 23 13 8 0 12 -5 9 -10 -4 -6 -10 -8 -14 -6 -4 3 -8 -1 -8 -9 0
-13 3 -13 17 0 19 18 22 45 4 38 -8 -3 -11 2 -7 16 3 11 12 22 20 25 8 3 12
10 8 16 -3 5 -1 19 5 31 13 23 20 129 9 129 -12 0 -4 35 11 47 13 10 12 11 -6
7 -18 -5 -23 1 -33 43 -7 26 -12 49 -12 51 1 1 -8 12 -19 24 -11 12 -18 28
-15 36 2 7 1 11 -3 8 -12 -7 -42 31 -42 52 0 14 -2 15 -10 2 -5 -8 -10 -10
-10 -5 0 6 -13 17 -29 26 -15 9 -45 42 -67 73 -21 30 -43 56 -47 56 -12 0 -37
27 -37 40 0 6 -4 9 -9 6 -15 -10 -19 19 -5 38 12 17 16 17 31 5 9 -8 14 -9 10
-2 -4 7 0 16 10 22 16 9 16 10 -4 8 -12 0 -19 -5 -16 -11 3 -5 1 -6 -6 -2 -15
10 -5 26 17 27 11 0 12 3 5 6 -7 2 -13 9 -13 14 0 6 5 7 10 4 6 -3 10 1 10 9
0 8 4 18 10 21 6 4 7 -1 4 -12 -5 -15 -4 -15 5 -3 6 9 7 18 1 24 -6 6 -1 17
13 30 22 20 27 28 27 44 1 4 11 20 24 36 l24 29 16 -29 c8 -16 15 -24 15 -19
0 6 -6 21 -13 34 -12 21 -11 28 5 55 10 17 27 41 39 53 11 12 20 27 20 33 0 5
5 10 11 10 11 0 5 -14 -20 -44 -16 -19 -16 -19 10 0 15 10 25 22 22 27 -2 4 4
7 14 7 14 1 13 4 -7 15 -14 8 -20 14 -15 15 6 0 24 22 40 50 27 47 52 69 39
35 -4 -8 -1 -15 6 -15 6 0 8 5 5 10 -6 9 8 14 28 11 4 -1 3 7 -2 17 -6 11 -6
24 0 33 5 7 9 19 8 24 0 6 -6 -1 -13 -14 -8 -14 -12 -31 -9 -38 5 -13 -9 -18
-19 -7 -6 5 40 94 48 94 3 0 2 -6 -2 -12 -5 -10 -4 -10 6 -1 11 10 16 9 27 -5
13 -16 13 -15 5 3 -8 14 -6 22 5 31 13 9 13 13 3 19 -8 5 -11 4 -7 -2 7 -11
-22 -28 -31 -18 -3 3 0 5 7 5 7 0 10 4 7 9 -3 5 1 12 10 15 9 3 14 12 11 19
-2 6 10 25 27 41 17 16 25 25 17 21 -10 -6 -12 -4 -5 6 4 8 9 21 11 29 1 8 8
19 15 25 7 5 14 19 16 30 1 11 3 28 4 38 1 9 5 17 9 17 10 0 3 120 -9 157 -6
17 -7 35 -4 40 4 4 3 5 -2 1 -8 -7 -36 14 -36 28 0 10 -52 53 -73 60 -9 3 -15
9 -12 14 3 4 -2 10 -10 14 -8 3 -15 12 -15 21 0 20 -6 19 -59 -12 -25 -15 -59
-35 -76 -44 -16 -8 -44 -36 -61 -61 l-31 -45 -36 39 c-24 26 -34 44 -30 56 3
9 2 14 -2 9 -9 -7 -35 42 -41 78 -2 11 -6 33 -9 48 -4 19 -2 26 5 22 5 -3 10
-1 10 4 0 6 -4 11 -10 11 -5 0 -10 14 -10 30 0 26 2 29 14 18 11 -10 11 -16 2
-28 -9 -13 -9 -13 5 -3 9 7 20 9 25 5 8 -6 -24 36 -36 48 -9 9 -10 30 -1 30 5
0 12 -6 14 -12 4 -10 6 -10 6 -1 1 6 -3 15 -9 18 -5 3 -10 11 -10 16 0 6 6 7
13 3 9 -6 9 -4 -1 8 -10 13 -10 23 1 56 8 23 12 41 8 40 -20 -2 -33 5 -60 31
-16 16 -27 32 -23 37 4 4 2 4 -4 1 -7 -4 -17 0 -24 8 -7 8 -19 15 -26 15 -8 0
-14 3 -14 8 0 4 -18 18 -40 31 -21 14 -36 29 -33 34 3 6 1 7 -5 3 -6 -3 -27 5
-48 19 -20 14 -41 25 -46 25 -5 0 -6 5 -3 10 4 6 3 10 -2 9 -21 -4 -34 2 -27
13 4 6 3 8 -4 4 -6 -3 -16 0 -24 7 -7 7 -17 14 -21 15 -18 2 -67 27 -67 34 0
5 -7 8 -15 8 -9 0 -30 7 -48 17 -27 14 -84 32 -147 47 -8 2 -35 11 -60 20 -25
9 -69 16 -97 16 -29 0 -53 5 -53 10 0 6 -5 10 -11 10 -5 0 -7 -4 -4 -10 3 -5
-1 -10 -9 -10 -21 0 -30 19 -12 26 9 3 16 12 16 19 0 7 7 18 15 25 8 7 21 25
29 41 14 29 14 29 -12 27 -15 -1 -49 -8 -77 -15z m-595 -727 c0 -3 -4 -8 -10
-11 -5 -3 -10 -1 -10 4 0 6 5 11 10 11 6 0 10 -2 10 -4z m-60 -32 c0 -7 -47
-45 -55 -44 -3 0 -17 -13 -32 -30 -17 -21 -29 -28 -36 -21 -15 15 10 41 31 34
9 -3 14 -3 10 2 -8 8 33 45 51 45 6 0 11 5 11 10 0 6 5 10 10 10 6 0 10 -3 10
-6z m1099 -2393 c-15 -5 -22 6 -14 19 6 9 10 9 16 -1 5 -8 4 -15 -2 -18z
m-212 -146 c0 -17 -13 -20 -21 -6 -4 5 0 12 6 14 7 3 13 6 14 6 0 1 1 -6 1
-14z m-157 -141 c0 -8 -4 -12 -10 -9 -5 3 -10 13 -10 21 0 8 5 12 10 9 6 -3
10 -13 10 -21z"/>
<path d="M1436 3063 c-6 -14 -5 -15 5 -6 7 7 10 15 7 18 -3 3 -9 -2 -12 -12z"/>
<path d="M2270 3820 c-9 -6 -10 -10 -3 -10 6 0 15 5 18 10 8 12 4 12 -15 0z"/>
<path d="M3175 3331 c-3 -5 -2 -12 3 -15 5 -3 9 1 9 9 0 17 -3 19 -12 6z"/>
<path d="M3155 3301 c-3 -5 -2 -12 3 -15 5 -3 9 1 9 9 0 17 -3 19 -12 6z"/>
<path d="M3173 3235 c0 -8 4 -12 9 -9 5 3 6 10 3 15 -9 13 -12 11 -12 -6z"/>
<path d="M3170 3201 c0 -6 4 -13 10 -16 6 -3 7 1 4 9 -7 18 -14 21 -14 7z"/>
<path d="M3156 3104 c-8 -20 -8 -24 2 -24 4 0 8 9 9 20 2 24 -3 26 -11 4z"/>
<path d="M3156 3037 c3 -10 9 -15 12 -12 3 3 0 11 -7 18 -10 9 -11 8 -5 -6z"/>
<path d="M3655 2790 c-3 -5 -1 -10 4 -10 6 0 11 5 11 10 0 6 -2 10 -4 10 -3 0
-8 -4 -11 -10z"/>
<path d="M3680 2745 c-7 -8 -17 -12 -23 -8 -6 4 -7 1 -3 -6 6 -9 13 -8 27 5
10 9 19 19 19 21 0 7 -8 2 -20 -12z"/>
<path d="M3655 2689 c-4 -6 -4 -13 -1 -16 3 -4 6 -1 6 6 0 7 5 9 12 5 7 -4 8
-3 4 4 -9 15 -13 15 -21 1z"/>
<path d="M3636 2637 c3 -10 9 -15 12 -12 3 3 0 11 -7 18 -10 9 -11 8 -5 -6z"/>
<path d="M3614 2595 c-10 -8 -14 -15 -8 -15 6 0 17 7 24 15 16 19 9 19 -16 0z"/>
<path d="M3630 2549 c0 -5 5 -7 10 -4 6 3 10 8 10 11 0 2 -4 4 -10 4 -5 0 -10
-5 -10 -11z"/>
<path d="M3585 2527 c-18 -14 -13 -38 8 -36 9 0 9 2 0 6 -18 7 -16 23 2 23 8
0 15 5 15 10 0 13 -3 13 -25 -3z"/>
<path d="M3635 2510 c3 -5 8 -10 11 -10 2 0 4 5 4 10 0 6 -5 10 -11 10 -5 0
-7 -4 -4 -10z"/>
<path d="M3510 2375 c0 -7 30 -13 34 -7 3 4 -4 9 -15 9 -10 1 -19 0 -19 -2z"/>
<path d="M3436 2292 c2 -2 -6 -16 -16 -30 -24 -30 -25 -38 -4 -46 14 -5 15 -4
5 8 -10 12 -8 19 9 36 13 13 18 25 13 30 -6 4 -8 5 -7 2z"/>
<path d="M3326 2141 c-3 -4 1 -17 10 -27 14 -18 15 -18 5 2 -6 12 -7 24 -4 28
3 3 4 6 0 6 -3 0 -8 -4 -11 -9z"/>
<path d="M3350 2131 c0 -6 4 -12 8 -15 5 -3 9 1 9 9 0 8 -4 15 -9 15 -4 0 -8
-4 -8 -9z"/>
<path d="M3301 2098 c-13 -20 -12 -22 1 -11 8 7 18 10 22 6 4 -4 4 0 0 10 -8
21 -6 21 -23 -5z"/>
<path d="M3326 2052 c-3 -5 1 -9 9 -9 8 0 12 4 9 9 -3 4 -7 8 -9 8 -2 0 -6 -4
-9 -8z"/>
<path d="M3260 2030 c0 -6 7 -10 15 -10 8 0 15 2 15 4 0 2 -7 6 -15 10 -8 3
-15 1 -15 -4z"/>
<path d="M3245 2010 c3 -6 1 -10 -5 -10 -6 0 -8 -4 -5 -10 3 -5 11 -10 16 -10
6 0 8 4 5 9 -4 5 -1 11 6 13 7 3 5 7 -6 11 -10 4 -15 3 -11 -3z"/>
<path d="M3212 1957 c-7 -8 -6 -19 3 -37 8 -14 14 -21 15 -17 0 5 -5 17 -10
27 -8 15 -6 21 7 29 10 6 13 11 7 11 -6 0 -16 -6 -22 -13z"/>
<path d="M3246 1955 c-11 -8 -15 -15 -9 -15 6 0 16 7 23 15 16 19 11 19 -14 0z"/>
<path d="M3188 1883 c7 -3 16 -2 19 1 4 3 -2 6 -13 5 -11 0 -14 -3 -6 -6z"/>
<path d="M3170 1829 c0 -5 5 -7 10 -4 6 3 10 8 10 11 0 2 -4 4 -10 4 -5 0 -10
-5 -10 -11z"/>
<path d="M3120 1808 c-12 -8 -12 -9 2 -5 9 3 19 1 22 -6 3 -9 5 -9 5 0 1 18
-13 23 -29 11z"/>
<path d="M3155 1781 c-3 -5 -2 -12 3 -15 5 -3 9 1 9 9 0 17 -3 19 -12 6z"/>
<path d="M3433 1425 c0 -8 4 -12 9 -9 5 3 6 10 3 15 -9 13 -12 11 -12 -6z"/>
<path d="M3466 1330 c6 -8 10 -23 8 -33 -1 -11 0 -16 4 -13 12 13 10 36 -6 48
-15 11 -15 11 -6 -2z"/>
<path d="M3490 1271 c0 -6 4 -13 10 -16 6 -3 7 1 4 9 -7 18 -14 21 -14 7z"/>
<path d="M3475 1240 c10 -11 20 -20 23 -20 3 0 -3 9 -13 20 -10 11 -20 20 -23
20 -3 0 3 -9 13 -20z"/>
<path d="M3456 1187 c3 -10 9 -15 12 -12 3 3 0 11 -7 18 -10 9 -11 8 -5 -6z"/>
<path d="M3456 1152 c-2 -4 -1 -14 4 -22 7 -11 9 -9 7 8 -1 24 -3 26 -11 14z"/>
<path d="M3428 1123 c7 -3 16 -2 19 1 4 3 -2 6 -13 5 -11 0 -14 -3 -6 -6z"/>
<path d="M410 1065 c0 -8 29 -12 39 -5 9 5 4 8 -13 8 -14 0 -26 -2 -26 -3z"/>
<path d="M3268 1063 c6 -2 18 -2 25 0 6 3 1 5 -13 5 -14 0 -19 -2 -12 -5z"/>
<path d="M470 1051 c0 -6 4 -13 10 -16 6 -3 7 1 4 9 -7 18 -14 21 -14 7z"/>
<path d="M389 1033 c-13 -16 -12 -17 4 -4 9 7 17 15 17 17 0 8 -8 3 -21 -13z"/>
<path d="M415 1030 c-3 -5 -1 -10 4 -10 6 0 11 5 11 10 0 6 -2 10 -4 10 -3 0
-8 -4 -11 -10z"/>
<path d="M570 1029 c0 -5 5 -7 10 -4 6 3 10 8 10 11 0 2 -4 4 -10 4 -5 0 -10
-5 -10 -11z"/>
<path d="M3106 1013 c-6 -14 -5 -15 5 -6 7 7 10 15 7 18 -3 3 -9 -2 -12 -12z"/>
<path d="M3074 1013 c4 -7 3 -13 -2 -13 -14 0 -23 -28 -11 -35 5 -4 8 -1 7 7
-2 7 2 12 9 11 13 -3 12 22 -2 34 -4 4 -5 2 -1 -4z"/>
<path d="M670 989 c0 -5 5 -7 10 -4 6 3 10 8 10 11 0 2 -4 4 -10 4 -5 0 -10
-5 -10 -11z"/>
<path d="M2970 980 c-9 -6 -10 -10 -3 -10 6 0 15 5 18 10 8 12 4 12 -15 0z"/>
<path d="M3010 970 c0 -5 5 -10 11 -10 5 0 7 5 4 10 -3 6 -8 10 -11 10 -2 0
-4 -4 -4 -10z"/>
<path d="M2887 934 c-35 -23 -42 -44 -14 -44 7 0 6 4 -3 10 -12 7 -10 11 11
18 14 6 31 17 38 26 18 21 13 20 -32 -10z"/>
<path d="M2990 930 c0 -5 5 -10 11 -10 5 0 7 5 4 10 -3 6 -8 10 -11 10 -2 0
-4 -4 -4 -10z"/>
<path d="M855 890 c-3 -6 1 -7 9 -4 18 7 21 14 7 14 -6 0 -13 -4 -16 -10z"/>
<path d="M2810 875 c-7 -9 -8 -15 -2 -15 5 0 12 7 16 15 3 8 4 15 2 15 -2 0
-9 -7 -16 -15z"/>
<path d="M2777 853 c-4 -3 -7 -11 -7 -17 0 -6 5 -5 12 2 6 6 9 14 7 17 -3 3
-9 2 -12 -2z"/>
<path d="M2830 853 c0 -5 5 -15 10 -23 7 -12 9 -10 7 8 -1 19 -17 33 -17 15z"/>
<path d="M2751 824 c0 -11 3 -14 6 -6 3 7 2 16 -1 19 -3 4 -6 -2 -5 -13z"/>
<path d="M2715 820 c-3 -5 -1 -10 4 -10 6 0 11 5 11 10 0 6 -2 10 -4 10 -3 0
-8 -4 -11 -10z"/>
<path d="M2730 790 c0 -5 5 -10 10 -10 6 0 10 5 10 10 0 6 -4 10 -10 10 -5 0
-10 -4 -10 -10z"/>
<path d="M2683 773 c9 -2 14 -9 11 -15 -4 -7 -2 -8 5 -4 15 10 4 26 -17 25
-15 -1 -15 -2 1 -6z"/>
<path d="M2635 710 c-3 -5 -1 -10 4 -10 6 0 11 5 11 10 0 6 -2 10 -4 10 -3 0
-8 -4 -11 -10z"/>
<path d="M2470 600 c8 -5 20 -10 25 -10 6 0 3 5 -5 10 -8 5 -19 10 -25 10 -5
0 -3 -5 5 -10z"/>
<path d="M2386 565 c-3 -9 -6 -22 -5 -28 0 -7 5 -1 10 12 5 13 8 26 5 28 -2 2
-6 -3 -10 -12z"/>
<path d="M2413 551 c0 -11 5 -18 9 -15 4 3 5 11 1 19 -7 21 -12 19 -10 -4z"/>
<path d="M2365 490 c-3 -6 1 -7 9 -4 18 7 21 14 7 14 -6 0 -13 -4 -16 -10z"/>
<path d="M2317 465 c-4 -8 -3 -16 1 -19 4 -3 9 4 9 15 2 23 -3 25 -10 4z"/>
<path d="M2155 378 l-20 -21 21 11 c12 6 24 8 28 4 4 -3 4 1 0 11 -3 9 -7 17
-8 16 0 0 -10 -10 -21 -21z"/>
<path d="M1546 348 c3 -5 10 -6 15 -3 13 9 11 12 -6 12 -8 0 -12 -4 -9 -9z"/>
<path d="M2140 346 c0 -2 7 -7 16 -10 8 -3 12 -2 9 4 -6 10 -25 14 -25 6z"/>
<path d="M2096 307 c3 -10 9 -15 12 -12 3 3 0 11 -7 18 -10 9 -11 8 -5 -6z"/>
<path d="M2069 308 c-1 -2 -3 -13 -4 -24 -2 -17 2 -20 19 -16 18 5 18 7 4 10
-10 2 -18 8 -18 13 0 6 5 7 12 3 7 -4 8 -3 4 4 -7 11 -14 15 -17 10z"/>
<path d="M2029 271 c-27 -30 -34 -47 -11 -27 22 19 32 10 12 -10 -7 -7 -7 -11
3 -11 8 0 13 13 14 34 0 18 0 33 -1 32 0 0 -8 -9 -17 -18z"/>
<path d="M1916 155 c4 -8 8 -15 10 -15 2 0 4 7 4 15 0 8 -4 15 -10 15 -5 0 -7
-7 -4 -15z"/>
<path d="M1887 129 c7 -7 15 -10 18 -7 3 3 -2 9 -12 12 -14 6 -15 5 -6 -5z"/>
<path d="M1836 112 c-3 -5 1 -9 9 -9 8 0 12 4 9 9 -3 4 -7 8 -9 8 -2 0 -6 -4
-9 -8z"/>
</g>
</svg>
